# xmcd CD database file
#
# Track frame offsets:
#	150
#	23965
#	42110
#	55095
#	60885
#	79568
#	90333
#	106563
#	121383
#	137013
#	152723
#
# Disc length: 2223 seconds
#
# Revision: 0
# Processed by: cddbd v1.5.2PL0 Copyright (c) Steve Scherf et al.
# Submitted via: CDex 1.51
#
DISCID=7408ad0b
DTITLE=Joël Fajerman - La aventura de las plantas
DYEAR=1982
DGENRE=New Age
TTITLE0=Flores love
TTITLE1=Ma Forét
TTITLE2=Racines Sinthetiques
TTITLE3=rose des sables
TTITLE4=Painted Desert
TTITLE5=Reminiscences
TTITLE6=Levantines
TTITLE7=Incantation
TTITLE8=Plage de lune
TTITLE9=Sirocco 
TTITLE10=Strings
EXTD=YEAR: 1982
EXTT0=
EXTT1=
EXTT2=
EXTT3=
EXTT4=
EXTT5=
EXTT6=
EXTT7=
EXTT8=
EXTT9=
EXTT10=
PLAYORDER=
